<svg width="192" height="192" viewBox="0 0 192 192" fill="none" xmlns="http://www.w3.org/2000/svg">
<path d="M46.8007 97.0419C46.8007 97.0419 81.1326 62.868 81.1326 34.338C81.1326 15.3707 65.7619 0 46.8007 0C27.8394 0 12.4688 15.3707 12.4688 34.338C12.4688 64.484 46.8007 97.0419 46.8007 97.0419ZM28.9087 34.338C28.9087 24.4473 36.9221 16.44 46.8007 16.44C56.6792 16.44 64.6926 24.4473 64.6926 34.338C64.6926 44.2166 56.6792 52.2239 46.8007 52.2239C36.9221 52.2239 28.9087 44.2166 28.9087 34.338Z" fill="url(#paint0_linear_492_248)"/>
<path d="M173.697 46.4337L170.909 47.3207L155.994 48.6512L151.789 55.3706L148.746 54.3985L136.88 43.7059L135.149 38.1469L132.859 32.2113L125.392 25.5162L116.607 23.7969L116.4 27.8248L125.015 36.2332L129.232 41.1967L124.481 43.6755L120.617 42.5333L114.839 40.1275L115.04 35.4555L107.445 32.3328L104.924 43.2927L97.2812 45.0303L98.0406 51.1482L107.992 53.068L109.717 43.2927L117.937 44.5139L121.759 46.7496H127.901L132.093 55.158L143.229 66.4521L142.415 70.8446L133.436 69.6963L117.925 77.5275L106.759 90.9237L105.307 96.8532H101.291L93.8243 93.4146L86.5703 96.8532L88.3747 104.514L91.5339 100.857L97.0807 100.693L96.6919 107.57L101.291 108.907L105.884 114.071L113.381 111.963L121.947 113.311L131.887 115.991L136.862 116.568L145.271 126.124L161.522 135.687L151.018 155.772L139.924 160.93L135.714 172.407L119.657 183.13L117.944 189.32C158.971 179.436 189.505 142.583 189.505 98.4936C189.518 79.2104 183.685 61.3002 173.697 46.4337Z" fill="url(#paint1_linear_492_248)"/>
<path d="M106.764 147.346L99.9594 134.722L106.205 121.684L99.9594 119.794L92.9363 112.753L77.3833 109.272L72.2192 98.4638V104.885H69.941L60.0685 91.5014C55.2507 97.267 51.5933 100.949 51.1377 101.398L46.9032 105.615L42.5714 101.501C41.4596 100.432 21.5628 81.3616 11.7268 58.1841C5.85794 70.3895 2.49219 84.0166 2.49219 98.4638C2.49219 150.117 44.3576 192 96.0104 192C99.9837 192 103.884 191.654 107.742 191.18L106.764 179.856C106.764 179.856 111.059 163.027 111.059 162.462C111.059 161.885 106.764 147.346 106.764 147.346Z" fill="url(#paint2_linear_492_248)"/>
<path d="M88.6178 22.8917L95.5012 24.0278L112.208 22.4604L116.801 17.3935L123.29 13.0557L132.476 14.4409L135.823 13.9366C123.727 8.24402 110.264 4.95117 96.0115 4.95117C89.3529 4.95117 82.8887 5.72882 76.625 7.04718C81.4914 12.3631 84.9908 18.9428 86.4793 26.2636L88.6178 22.8917ZM99.9605 14.2343L109.517 8.97914L115.647 12.515L106.765 19.2769L98.2959 20.1335L94.4744 17.6609L99.9605 14.2343Z" fill="url(#paint3_linear_492_248)"/>
<defs>
<linearGradient id="paint0_linear_492_248" x1="46.8007" y1="0" x2="46.8007" y2="97.0419" gradientUnits="userSpaceOnUse">
<stop stop-color="#035C38"/>
<stop offset="1" stop-color="#006F33"/>
</linearGradient>
<linearGradient id="paint1_linear_492_248" x1="138.038" y1="23.7969" x2="138.038" y2="189.32" gradientUnits="userSpaceOnUse">
<stop stop-color="#035C38"/>
<stop offset="1" stop-color="#006F33"/>
</linearGradient>
<linearGradient id="paint2_linear_492_248" x1="56.7756" y1="58.1841" x2="56.7756" y2="192" gradientUnits="userSpaceOnUse">
<stop stop-color="#035C38"/>
<stop offset="1" stop-color="#006F33"/>
</linearGradient>
<linearGradient id="paint3_linear_492_248" x1="106.224" y1="4.95117" x2="106.224" y2="26.2636" gradientUnits="userSpaceOnUse">
<stop stop-color="#035C38"/>
<stop offset="1" stop-color="#006F33"/>
</linearGradient>
</defs>
</svg>
