<svg width="192" height="192" viewBox="0 0 192 192" fill="none" xmlns="http://www.w3.org/2000/svg">
<path d="M147.4 48.7692V13.8203H110.203L147.4 48.7692Z" fill="url(#paint0_linear_492_220)"/>
<path d="M53.1797 56.1477H138.823L96.0013 15.9136L53.1797 56.1477Z" fill="url(#paint1_linear_492_220)"/>
<path d="M144.425 67.3975H47.5742L95.9995 178.18L144.425 67.3975Z" fill="url(#paint2_linear_492_220)"/>
<path d="M44.6016 48.7692L81.7982 13.8203H44.6016V48.7692Z" fill="url(#paint3_linear_492_220)"/>
<path d="M33.3518 56.1475V22.2925L1.21875 56.1475H33.3518Z" fill="url(#paint4_linear_492_220)"/>
<path d="M158.648 56.1475H190.781L158.648 22.2925V56.1475Z" fill="url(#paint5_linear_492_220)"/>
<path d="M156.703 67.3975L117.207 157.751L192 67.3975H156.703Z" fill="url(#paint6_linear_492_220)"/>
<path d="M35.2969 67.3975H0L74.7926 157.751L35.2969 67.3975Z" fill="url(#paint7_linear_492_220)"/>
<defs>
<linearGradient id="paint0_linear_492_220" x1="128.801" y1="13.8203" x2="128.801" y2="48.7692" gradientUnits="userSpaceOnUse">
<stop stop-color="#035C38"/>
<stop offset="1" stop-color="#006F33"/>
</linearGradient>
<linearGradient id="paint1_linear_492_220" x1="96.0013" y1="15.9136" x2="96.0013" y2="56.1477" gradientUnits="userSpaceOnUse">
<stop stop-color="#035C38"/>
<stop offset="1" stop-color="#006F33"/>
</linearGradient>
<linearGradient id="paint2_linear_492_220" x1="95.9995" y1="67.3975" x2="95.9995" y2="178.18" gradientUnits="userSpaceOnUse">
<stop stop-color="#035C38"/>
<stop offset="1" stop-color="#006F33"/>
</linearGradient>
<linearGradient id="paint3_linear_492_220" x1="63.1999" y1="13.8203" x2="63.1999" y2="48.7692" gradientUnits="userSpaceOnUse">
<stop stop-color="#035C38"/>
<stop offset="1" stop-color="#006F33"/>
</linearGradient>
<linearGradient id="paint4_linear_492_220" x1="17.2853" y1="22.2925" x2="17.2853" y2="56.1475" gradientUnits="userSpaceOnUse">
<stop stop-color="#035C38"/>
<stop offset="1" stop-color="#006F33"/>
</linearGradient>
<linearGradient id="paint5_linear_492_220" x1="174.715" y1="22.2925" x2="174.715" y2="56.1475" gradientUnits="userSpaceOnUse">
<stop stop-color="#035C38"/>
<stop offset="1" stop-color="#006F33"/>
</linearGradient>
<linearGradient id="paint6_linear_492_220" x1="154.603" y1="67.3975" x2="154.603" y2="157.751" gradientUnits="userSpaceOnUse">
<stop stop-color="#035C38"/>
<stop offset="1" stop-color="#006F33"/>
</linearGradient>
<linearGradient id="paint7_linear_492_220" x1="37.3963" y1="67.3975" x2="37.3963" y2="157.751" gradientUnits="userSpaceOnUse">
<stop stop-color="#035C38"/>
<stop offset="1" stop-color="#006F33"/>
</linearGradient>
</defs>
</svg>
