<svg width="192" height="192" viewBox="0 0 192 192" fill="none" xmlns="http://www.w3.org/2000/svg">
<g clip-path="url(#clip0_492_233)">
<path d="M11.625 141C11.625 150.305 19.1948 157.875 28.5 157.875C33.0413 157.875 37.1663 156.069 40.2026 153.141L79.2578 172.669C79.1734 173.351 79.125 174.045 79.125 174.75C79.125 184.055 86.6947 192 96 192C105.305 192 112.875 184.055 112.875 174.75C112.875 174.045 112.827 173.351 112.742 172.669L151.797 153.141C154.834 156.069 158.959 157.875 163.5 157.875C172.805 157.875 180.375 150.305 180.375 141C180.375 133.667 175.672 127.414 169.125 125.092V66.9075C175.672 64.5855 180.375 58.3335 180.375 51C180.375 41.6948 172.805 34.125 163.5 34.125C158.959 34.125 154.834 35.9314 151.797 38.859L112.742 19.3312C112.827 18.6488 112.875 17.955 112.875 17.25C112.875 7.94475 105.305 0 96 0C86.6947 0 79.125 7.94475 79.125 17.25C79.125 17.955 79.1734 18.6488 79.2578 19.3312L40.2026 38.859C37.1663 35.9314 33.0413 34.125 28.5 34.125C19.1948 34.125 11.625 41.6948 11.625 51C11.625 58.3335 16.3279 64.5859 22.875 66.9075V125.092C16.3279 127.414 11.625 133.667 11.625 141ZM85.8881 109.501C87.2408 110.517 88.7516 111.332 90.375 111.908V135.375H47.0779L85.8881 109.501ZM101.625 111.908C103.248 111.332 104.759 110.517 106.112 109.501L144.922 135.375H101.625V111.908ZM112.358 100.145C112.695 98.8185 112.875 97.4299 112.875 96C112.875 94.5701 112.695 93.1815 112.358 91.8548L125.506 83.0899L147.634 123.663L112.358 100.145ZM106.112 82.4985C104.759 81.483 103.248 80.6681 101.625 80.0925V39.303L120.098 73.1741L106.112 82.4985ZM90.375 80.0925C88.7516 80.6681 87.2411 81.483 85.8881 82.4985L71.9018 73.1741L90.375 39.303V80.0925ZM79.6418 91.8548C79.3054 93.1815 79.125 94.5701 79.125 96C79.125 97.4299 79.3054 98.8185 79.6418 100.145L44.3662 123.662L66.4942 83.0895L79.6418 91.8548ZM90.375 146.625V158.842C88.0811 159.656 86.0153 160.953 84.2974 162.609L52.3294 146.625H90.375ZM101.625 158.842V146.625H139.671L107.703 162.609C105.985 160.953 103.919 159.656 101.625 158.842ZM134.902 76.8255L153.388 64.5015C154.741 65.517 156.252 66.3319 157.875 66.9075V118.947L134.902 76.8255ZM147.142 55.1452L129.495 66.9101L109.53 30.3049L146.758 48.9187C146.673 49.6012 146.625 50.295 146.625 51C146.625 52.4299 146.805 53.8185 147.142 55.1452ZM62.5054 66.9101L44.8582 55.1452C45.1946 53.8185 45.375 52.4299 45.375 51C45.375 50.295 45.3266 49.6012 45.2423 48.9187L82.47 30.3049L62.5054 66.9101ZM38.6119 64.5015L57.0979 76.8255L34.125 118.947V66.9075C35.7484 66.3319 37.2589 65.517 38.6119 64.5015Z" fill="url(#paint0_linear_492_233)"/>
<circle cx="96" cy="17" r="16.5" stroke="#0E0E0F" stroke-width="5"/>
<circle cx="164" cy="50" r="16.5" stroke="#0E0E0F" stroke-width="5"/>
<circle cx="28" cy="50" r="16.5" stroke="#0E0E0F" stroke-width="5"/>
<circle cx="28" cy="139" r="16.5" stroke="#0E0E0F" stroke-width="5"/>
<circle cx="164" cy="139" r="16.5" stroke="#0E0E0F" stroke-width="5"/>
<circle cx="96" cy="96" r="16.5" stroke="#0E0E0F" stroke-width="5"/>
<circle cx="96" cy="173" r="16.5" stroke="#0E0E0F" stroke-width="5"/>
</g>
<defs>
<linearGradient id="paint0_linear_492_233" x1="96" y1="0" x2="96" y2="192" gradientUnits="userSpaceOnUse">
<stop stop-color="#035C38"/>
<stop offset="1" stop-color="#006F33"/>
</linearGradient>
<clipPath id="clip0_492_233">
<rect width="192" height="192" fill="white"/>
</clipPath>
</defs>
</svg>
