<svg width="620" height="120" viewBox="0 0 620 120" fill="none" xmlns="http://www.w3.org/2000/svg">
<path d="M49.9949 0L0 15.8186V47.8653C0 56.3607 1.59174 64.7163 4.57627 72.5323C9.2537 84.7742 17.3439 95.694 28.0747 103.74L47.2633 118.126L48.0187 118.693L49.5869 119.828C49.9174 120.068 50.3693 120.055 50.6863 119.802L51.8329 118.889L71.9253 103.743C89.5053 90.5522 100 69.665 100 47.8687V15.8186L49.9949 0ZM5.95892 20.1146L49.9949 6.1809L94.0377 20.1146V40.0027C88.3283 33.965 80.2819 30.4249 71.6555 30.4249C62.3377 30.4249 53.4482 34.6843 47.6512 41.8709C46.8553 41.811 46.0594 41.781 45.2804 41.781C32.6105 41.781 21.0872 49.647 16.6054 61.3594L15.9781 63.0079C15.85 63.3409 15.9141 63.6806 16.0962 63.9337C20.0216 62.2153 24.3652 61.2595 28.938 61.2595C29.4506 61.2595 29.9599 61.2728 30.4657 61.2961C32.8635 61.476 35.2039 61.8523 37.4768 62.4118C37.5274 62.4218 37.5746 62.4351 37.6252 62.4517C50.9122 66.1782 60.6448 78.2536 60.6448 92.5703C60.6448 92.6269 60.6448 92.6802 60.6448 92.7368C60.6043 100.43 56.8543 107.646 50.6492 112.299L50.2681 112.585C50.1096 112.702 49.8904 112.702 49.7353 112.585L49.452 112.372L31.6831 99.0509C21.1446 91.145 13.3814 80.2152 9.27731 68.0065C7.10889 61.5626 5.9623 54.7622 5.9623 47.8653V20.1146H5.95892Z" fill="white"/>
<path d="M150.79 70.9025L161.502 36.1853H168.777L179.478 70.9025L191.559 36.1853H200.28L183.527 84.4403H175.496L165.407 51.3678H164.862L154.773 84.4403H146.741L130 36.1853H138.721L150.79 70.9025Z" fill="white"/>
<path d="M212.283 73.4644L207.477 84.4401H198.834L219.969 36.1963H228.612L249.747 84.4401H241.104L236.299 73.4644H212.283ZM233.006 65.9347L224.285 46.0532L215.575 65.9347H233.006Z" fill="white"/>
<path d="M270.747 43.6367V84.4403H262.649V43.6367H248.11V36.1853H285.297V43.6367H270.747Z" fill="white"/>
<path d="M315.977 77.0563C318.769 77.0563 321.172 76.5864 323.185 75.6466C325.199 74.7068 327.301 73.1964 329.504 71.1265L334.721 76.5081C329.637 82.1694 323.474 85 316.222 85C308.969 85 302.951 82.6505 298.168 77.9626C293.385 73.2635 290.993 67.3337 290.993 60.1508C290.993 52.968 293.429 46.9934 298.301 42.2049C303.174 37.4163 309.325 35.022 316.767 35.022C324.209 35.022 330.416 37.7855 335.399 43.3013L330.249 48.9626C327.957 46.7473 325.799 45.2145 323.764 44.3418C321.728 43.4691 319.336 43.0328 316.589 43.0328C311.739 43.0328 307.668 44.6103 304.375 47.7654C301.082 50.9205 299.436 54.9483 299.436 59.8488C299.436 64.7492 301.071 68.8441 304.342 72.1335C307.612 75.4117 311.494 77.0563 315.977 77.0563Z" fill="white"/>
<path d="M344.599 84.4403V36.1853H352.697V57.1074H376.513V36.1853H384.611V84.4403H376.513V64.693H352.697V84.4403H344.599Z" fill="white"/>
<path d="M419.817 77.0563C422.609 77.0563 425.012 76.5864 427.025 75.6466C429.038 74.7068 431.141 73.1964 433.343 71.1265L438.56 76.5081C433.477 82.1694 427.314 85 420.062 85C412.809 85 406.791 82.6505 402.008 77.9626C397.225 73.2635 394.833 67.3337 394.833 60.1508C394.833 52.968 397.269 46.9934 402.141 42.2049C407.013 37.4163 413.165 35.022 420.607 35.022C428.037 35.022 434.256 37.7855 439.239 43.3013L434.089 48.9626C431.797 46.7473 429.639 45.2145 427.604 44.3418C425.568 43.4691 423.176 43.0328 420.429 43.0328C415.579 43.0328 411.507 44.6103 408.215 47.7654C404.922 50.9205 403.276 54.9483 403.276 59.8488C403.276 64.7492 404.911 68.8441 408.181 72.1335C411.452 75.4117 415.323 77.0563 419.817 77.0563Z" fill="white"/>
<path d="M486.726 51.8599C486.726 59.8259 483.267 64.8382 476.359 66.9081L488.918 84.4401H478.628L467.171 68.2171H456.537V84.4401H448.438V36.1963H466.281C473.6 36.1963 478.84 37.4382 481.999 39.922C485.147 42.3946 486.726 46.3776 486.726 51.8599ZM475.947 58.6847C477.594 57.2638 478.417 54.9702 478.417 51.8151C478.417 48.66 477.572 46.5007 475.881 45.3259C474.19 44.1511 471.164 43.5694 466.826 43.5694H456.537V60.8217H466.626C471.187 60.8328 474.301 60.1168 475.947 58.6847Z" fill="white"/>
<path d="M538.542 77.7728C533.692 82.539 527.697 84.9221 520.566 84.9221C513.425 84.9221 507.429 82.539 502.59 77.7728C497.74 73.0065 495.315 67.0768 495.315 59.961C495.315 52.8565 497.74 46.9155 502.59 42.1493C507.44 37.3831 513.436 35 520.566 35C527.708 35 533.692 37.3831 538.542 42.1493C543.392 46.9155 545.817 52.8453 545.817 59.961C545.817 67.0768 543.392 73.0177 538.542 77.7728ZM532.602 47.5756C529.332 44.1744 525.316 42.4738 520.555 42.4738C515.794 42.4738 511.779 44.1744 508.508 47.5756C505.238 50.988 503.603 55.1165 503.603 59.961C503.603 64.8167 505.238 68.9452 508.508 72.3465C511.779 75.7589 515.794 77.4595 520.555 77.4595C525.316 77.4595 529.332 75.7589 532.602 72.3465C535.873 68.9452 537.508 64.8167 537.508 59.961C537.508 55.1165 535.873 50.988 532.602 47.5756Z" fill="white"/>
<path d="M570.522 70.9025L581.223 36.1853H588.498L599.199 70.9025L611.279 36.1853H620L603.259 84.4403H595.228L585.139 51.3678H584.582L574.504 84.4403H566.473L549.721 36.1853H558.442L570.522 70.9025Z" fill="white"/>
</svg>
