<svg width="1969" height="1045" viewBox="0 0 1969 1045" fill="none" xmlns="http://www.w3.org/2000/svg">
<path opacity="0.36" d="M722.281 418.146H853.42M722.281 418.146L656.711 313.85M722.281 418.146H591.141M722.281 418.146L787.85 313.85L722.281 209.567M722.281 418.146L787.85 522.429L722.28 626.712M722.281 418.146L656.711 522.429M853.42 418.146L918.99 313.85L853.42 209.567M853.42 418.146L918.99 522.429L853.42 626.712M853.42 209.567H722.281M853.42 209.567L918.99 105.283L853.42 1H722.28M722.281 209.567L656.711 313.85M722.281 209.567L591.141 209.567M722.281 209.567L787.85 105.283L722.28 1M722.281 209.567L656.711 105.283M656.711 313.85L591.141 418.146M656.711 313.85L591.141 209.567M328.851 209.567H459.991M328.851 209.567L263.281 105.283L328.851 1M328.851 209.567L394.42 313.85L328.85 418.146M328.851 209.567H197.71M328.851 209.567L263.281 313.85L328.85 418.146M328.851 209.567L394.42 105.283L328.851 1M459.991 209.567L525.574 105.283L459.991 1H328.851M459.991 209.567L525.574 313.85L459.991 418.146M328.851 1H197.71M459.988 209.567H591.141M459.988 209.567L394.418 105.283L459.988 1H591.141M459.988 209.567L394.418 313.85L459.988 418.146M591.141 209.567L656.711 105.283M591.141 209.567L525.57 313.85L591.141 418.146M591.141 209.567L525.57 105.283L591.141 1M656.711 105.283L591.141 1M656.711 105.283L722.28 1M591.141 1H722.28M66.5698 209.567H197.71M66.5698 209.567L1 105.283L66.5698 1H197.71M66.5698 209.567L1 313.85L66.5698 418.146M197.71 209.567L263.279 105.283L197.71 1M197.71 209.567L132.141 313.85L197.71 418.146M197.71 209.567L263.279 313.85L197.71 418.146M197.71 209.567L132.141 105.283L197.71 1M197.71 418.146H328.85M197.71 418.146L66.5698 418.146M197.71 418.146L263.279 522.429L197.71 626.712M197.71 418.146L132.141 522.429L197.71 626.712M328.85 418.146H459.991M328.85 418.146L394.42 522.429L328.85 626.712M328.85 418.146L263.281 522.429L328.85 626.712M459.991 418.146L525.574 522.429L459.991 626.712M459.988 418.146H591.141M459.988 418.146L394.418 522.429L459.988 626.712M591.141 418.146L525.57 522.429L591.14 626.712M591.141 418.146L656.711 522.429M66.5698 418.146L1 522.429L66.5698 626.712M853.421 418.146H984.561M853.421 418.146L787.852 313.85L853.421 209.567H984.561L1050.13 313.85L984.561 418.146M853.421 418.146L787.852 522.429L853.421 626.712L984.561 626.712M984.561 418.146L1050.13 522.429L984.561 626.712M66.5698 835.279H197.71M66.5698 835.279L1 730.996L66.5698 626.712M66.5698 835.279L1 939.562L66.5698 1043.85H197.71M197.71 835.279L263.279 730.996L197.71 626.712M197.71 835.279L328.851 835.279M197.71 835.279L132.141 730.996L197.71 626.712M197.71 835.279L263.279 939.562L197.71 1043.85M197.71 835.279L132.141 939.562L197.71 1043.85M197.71 626.712H66.5698M197.71 626.712L328.85 626.712M328.85 626.712H459.991M328.85 626.712L394.42 730.996L328.851 835.279M328.85 626.712L263.281 730.996L328.851 835.279M459.991 626.712L525.574 730.996L459.991 835.279M328.851 1043.85H459.991L525.574 939.562L459.991 835.279M328.851 1043.85L263.281 939.562L328.851 835.279M328.851 1043.85H197.71M328.851 1043.85L394.42 939.562L328.851 835.279M459.991 835.279H328.851M591.141 1043.85H459.988L394.418 939.562L459.988 835.279M591.141 1043.85L656.711 939.562M591.141 1043.85H722.28M591.141 1043.85L525.57 939.562L591.141 835.279M656.711 939.562L591.141 835.279M656.711 939.562L722.28 835.279M656.711 939.562L722.28 1043.85M591.141 835.279H459.988M591.141 835.279L656.711 730.996M591.141 835.279L722.28 835.279M591.141 835.279L525.57 730.996L591.14 626.712M459.988 835.279L394.418 730.996L459.988 626.712M591.14 626.712H722.28M591.14 626.712H459.988M591.14 626.712L656.711 522.429M591.14 626.712L656.711 730.996M722.28 626.712L787.85 730.996L722.28 835.279M722.28 626.712L853.42 626.712M722.28 626.712L656.711 730.996M722.28 626.712L656.711 522.429M656.711 730.996L722.28 835.279M722.28 835.279L787.85 939.562L722.28 1043.85M722.28 835.279L853.42 835.279M722.28 1043.85H853.42L918.99 939.562L853.42 835.279M1770.73 209.567H1901.88M1770.73 209.567L1705.16 105.283L1770.73 1M1770.73 209.567L1836.31 313.85L1770.73 418.146M1770.73 209.567L1639.59 209.567M1770.73 209.567L1705.16 313.85L1770.73 418.146M1770.73 209.567L1836.31 105.283L1770.73 1M1901.88 209.567L1967.45 105.283L1901.88 1H1770.73M1901.88 209.567L1967.45 313.85L1901.88 418.146M1770.73 1H1639.59L1574.02 105.283M1639.59 418.146H1770.73M1639.59 418.146L1574.02 313.85M1639.59 418.146L1574.02 522.429M1639.59 418.146H1508.45M1639.59 418.146L1705.15 313.85L1639.59 209.567M1639.59 418.146L1705.15 522.429L1639.59 626.712M1770.73 418.146H1901.88M1770.73 418.146L1836.31 522.429L1770.73 626.712M1770.73 418.146L1705.16 522.429L1770.73 626.712M1639.59 209.567L1574.02 313.85M1639.59 209.567L1574.02 105.283M1639.59 209.567H1508.45M1574.02 313.85L1508.45 418.146M1574.02 313.85L1508.45 209.567M1901.88 418.146L1967.45 522.429L1901.88 626.712M1574.02 105.283L1508.45 209.567M1574.02 105.283L1508.45 1L1377.31 1M1639.59 626.712H1770.73M1639.59 626.712L1574.02 522.429M1639.59 626.712L1574.02 730.996M1639.59 626.712L1705.15 730.996L1639.59 835.279M1639.59 626.712L1508.45 626.712M1770.73 626.712H1901.88M1770.73 626.712L1836.31 730.996L1770.73 835.279M1770.73 626.712L1705.16 730.996L1770.73 835.279M1574.02 522.429L1508.45 626.712M1574.02 522.429L1508.45 418.146M1901.88 626.712L1967.45 730.996L1901.88 835.279M1770.73 1043.85H1901.88L1967.45 939.562L1901.88 835.279M1770.73 1043.85L1705.16 939.562L1770.73 835.279M1770.73 1043.85H1639.59M1770.73 1043.85L1836.31 939.562L1770.73 835.279M1901.88 835.279H1770.73M1770.73 835.279L1639.59 835.279M1639.59 835.279L1574.02 730.996M1639.59 835.279L1574.02 939.562M1639.59 835.279L1508.45 835.279M1639.59 835.279L1705.15 939.562L1639.59 1043.85M1574.02 730.996L1508.45 835.279M1574.02 730.996L1508.45 626.712M1639.59 1043.85L1574.02 939.562M1639.59 1043.85H1508.45M1574.02 939.562L1508.45 1043.85M1574.02 939.562L1508.45 835.279M853.42 835.279L918.99 730.996L853.42 626.712M853.42 835.279L984.561 835.279M853.42 835.279L787.852 730.996L853.42 626.712M853.42 626.712H984.561M984.561 835.279L1050.13 730.996L984.561 626.712M984.561 835.279L1050.13 939.562L984.561 1043.85H853.421L787.852 939.562L853.421 835.279L984.561 835.279ZM1377.31 418.146H1508.45M1377.31 418.146L1311.72 313.85L1377.31 209.567M1377.31 418.146H1246.15M1377.31 418.146L1442.88 313.85M1377.31 418.146L1442.88 522.429M1377.31 418.146L1311.72 522.429L1377.31 626.712M1508.45 418.146L1442.88 313.85M1508.45 418.146L1442.88 522.429M1508.45 209.567H1377.31M1508.45 209.567L1442.88 313.85M1377.31 209.567L1442.88 313.85M1377.31 209.567L1246.15 209.567M1377.31 209.567L1442.88 105.283L1377.31 1M1377.31 209.567L1311.72 105.283L1377.31 1M983.871 209.567H1115.01M983.871 209.567L918.301 105.283L983.871 1H1115.01M983.871 209.567L918.301 313.85L983.871 418.146M1115.01 209.567L1180.58 105.283L1115.01 1M1115.01 209.567H1246.15M1115.01 209.567L1049.44 105.283L1115.01 1M1115.01 209.567L1180.58 313.85L1115.01 418.146M1115.01 209.567L1049.44 313.85L1115.01 418.146M1115.01 1H1246.15M1246.15 209.567L1311.72 105.283L1246.15 1M1246.15 209.567L1311.72 313.85L1246.15 418.146M1246.15 209.567L1180.58 313.85L1246.15 418.146M1246.15 209.567L1180.58 105.283L1246.15 1M1246.15 1L1377.31 1M983.871 418.146H1115.01M983.871 418.146L918.301 522.429L983.871 626.712M1115.01 418.146H1246.15M1115.01 418.146L1180.58 522.429L1115.01 626.712M1115.01 418.146L1049.44 522.429L1115.01 626.712M1246.15 418.146L1180.58 522.429L1246.15 626.712M1246.15 418.146L1311.72 522.429L1246.15 626.712M983.871 626.712H1115.01M983.871 626.712L918.301 730.996L983.871 835.279M1115.01 626.712L1246.15 626.712M1115.01 626.712L1180.58 730.996L1115.01 835.279M1115.01 626.712L1049.44 730.996L1115.01 835.279M1115.01 1043.85H983.871L918.301 939.562L983.871 835.279M1115.01 1043.85L1180.58 939.562L1115.01 835.279M1115.01 1043.85H1246.15M1115.01 1043.85L1049.44 939.562L1115.01 835.279M1115.01 835.279H983.871M1115.01 835.279H1246.15M1246.15 1043.85L1311.72 939.562L1246.15 835.279M1246.15 1043.85H1377.31M1246.15 1043.85L1180.58 939.562L1246.15 835.279M1246.15 835.279L1311.72 730.996L1246.15 626.712M1246.15 835.279L1377.31 835.279M1246.15 835.279L1180.58 730.996L1246.15 626.712M1246.15 626.712H1377.31M1377.31 626.712L1442.88 522.429M1377.31 626.712L1442.88 730.996M1377.31 626.712L1508.45 626.712M1377.31 626.712L1311.72 730.996L1377.31 835.279M1442.88 522.429L1508.45 626.712M1377.31 835.279L1442.88 730.996M1377.31 835.279L1442.88 939.562M1377.31 835.279L1508.45 835.279M1377.31 835.279L1311.72 939.562L1377.31 1043.85M1442.88 730.996L1508.45 626.712M1442.88 730.996L1508.45 835.279M1377.31 1043.85L1442.88 939.562M1377.31 1043.85H1508.45M1442.88 939.562L1508.45 835.279M1442.88 939.562L1508.45 1043.85M853.394 209.567H984.534L1050.1 105.283L984.534 1H853.394L787.824 105.283L853.394 209.567ZM1508.42 209.567H1639.56L1705.13 105.283L1639.56 1H1508.42L1442.84 105.283L1508.42 209.567Z" stroke="url(#paint0_linear_593_112)" stroke-miterlimit="10"/>
<defs>
<linearGradient id="paint0_linear_593_112" x1="984.225" y1="1" x2="984.225" y2="1043.85" gradientUnits="userSpaceOnUse">
<stop stop-color="#016F33" stop-opacity="0"/>
<stop offset="1" stop-color="#016F33"/>
</linearGradient>
</defs>
</svg>
