<svg width="374" height="449" viewBox="0 0 374 449" fill="none" xmlns="http://www.w3.org/2000/svg">
<path d="M186.981 0L0 59.1878V179.096C0 210.883 5.95312 242.147 17.1152 271.392C34.6088 317.197 64.8663 358.055 104.999 388.16L176.765 441.99L179.59 444.108L185.455 448.357C186.691 449.254 188.381 449.204 189.567 448.257L193.855 444.843L269 388.172C334.75 338.816 374 260.663 374 179.109V59.1878L186.981 0ZM22.2864 75.262L186.981 23.1269L351.701 75.262V149.677C330.348 127.086 300.254 113.84 267.991 113.84C233.143 113.84 199.896 129.777 178.215 156.667C175.239 156.443 172.262 156.331 169.349 156.331C121.963 156.331 78.8663 185.763 62.1042 229.586L59.7583 235.754C59.279 237.001 59.5186 238.271 60.1997 239.219C74.8807 232.789 91.1257 229.213 108.228 229.213C110.145 229.213 112.05 229.262 113.942 229.35C122.909 230.023 131.662 231.431 140.163 233.524C140.352 233.561 140.529 233.611 140.718 233.674C190.412 247.617 226.811 292.799 226.811 346.367C226.811 346.579 226.811 346.778 226.811 346.99C226.66 375.774 212.635 402.776 189.428 420.184L188.003 421.255C187.41 421.691 186.59 421.691 186.01 421.255L184.95 420.458L118.495 370.615C79.0807 341.034 50.0466 300.138 34.6971 254.458C26.5873 230.347 22.299 204.902 22.299 179.096V75.262H22.2864Z" fill="#115833"/>
</svg>
