<svg width="1966" height="1065" viewBox="0 0 1966 1065" fill="none" xmlns="http://www.w3.org/2000/svg">
<g clip-path="url(#clip0_590_106)">
<rect width="1966" height="1065" fill="black"/>
<path d="M721.281 426.109H852.42M721.281 426.109L655.711 319.572M721.281 426.109H590.141M721.281 426.109L786.85 319.572L721.281 213.048M721.281 426.109L786.85 532.633L721.28 639.157M721.281 426.109L655.711 532.633M852.42 426.109L917.99 319.572L852.42 213.048M852.42 426.109L917.99 532.633L852.42 639.158M852.42 213.048H721.281M852.42 213.048L917.99 106.524L852.42 0H721.28M721.281 213.048L655.711 319.572M721.281 213.048L590.141 213.048M721.281 213.048L786.85 106.524L721.28 0M721.281 213.048L655.711 106.524M655.711 319.572L590.141 426.109M655.711 319.572L590.141 213.048M327.851 213.048H458.991M327.851 213.048L262.281 106.524L327.851 0M327.851 213.048L393.42 319.572L327.85 426.109M327.851 213.048H196.71M327.851 213.048L262.281 319.572L327.85 426.109M327.851 213.048L393.42 106.524L327.851 0M458.991 213.048L524.574 106.524L458.991 0H327.851M458.991 213.048L524.574 319.572L458.991 426.109M327.851 0H196.71M458.988 213.048H590.141M458.988 213.048L393.418 106.524L458.988 0H590.141M458.988 213.048L393.418 319.572L458.988 426.109M590.141 213.048L655.711 106.524M590.141 213.048L524.57 319.572L590.141 426.109M590.141 213.048L524.57 106.524L590.141 0M655.711 106.524L590.141 0M655.711 106.524L721.28 0M590.141 0H721.28M65.5698 213.048H196.71M65.5698 213.048L0 106.524L65.5698 0H196.71M65.5698 213.048L5.7239e-09 319.572L65.5698 426.109M196.71 213.048L262.279 106.524L196.71 0M196.71 213.048L131.141 319.572L196.71 426.109M196.71 213.048L262.279 319.572L196.71 426.109M196.71 213.048L131.141 106.524L196.71 0M196.71 426.109H327.85M196.71 426.109L65.5698 426.109M196.71 426.109L262.279 532.633L196.71 639.158M196.71 426.109L131.141 532.633L196.71 639.158M327.85 426.109H458.991M327.85 426.109L393.42 532.633L327.85 639.157M327.85 426.109L262.281 532.633L327.85 639.157M458.991 426.109L524.574 532.633L458.991 639.157M458.988 426.109H590.141M458.988 426.109L393.418 532.633L458.988 639.157M590.141 426.109L524.57 532.633L590.14 639.157M590.141 426.109L655.711 532.633M65.5698 426.109L5.7239e-09 532.633L65.5698 639.158M852.421 426.109H983.561M852.421 426.109L786.852 319.572L852.421 213.048H983.561L1049.13 319.572L983.561 426.109M852.421 426.109L786.852 532.633L852.421 639.157L983.561 639.158M983.561 426.109L1049.13 532.633L983.561 639.158M65.5698 852.206H196.71M65.5698 852.206L0 745.682L65.5698 639.158M65.5698 852.206L5.7239e-09 958.73L65.5698 1065.25H196.71M196.71 852.206L262.279 745.682L196.71 639.158M196.71 852.206L327.851 852.206M196.71 852.206L131.141 745.682L196.71 639.158M196.71 852.206L262.279 958.73L196.71 1065.25M196.71 852.206L131.141 958.73L196.71 1065.25M196.71 639.158H65.5698M196.71 639.158L327.85 639.157M327.85 639.157H458.991M327.85 639.157L393.42 745.682L327.851 852.206M327.85 639.157L262.281 745.682L327.851 852.206M458.991 639.157L524.574 745.682L458.991 852.206M327.851 1065.25H458.991L524.574 958.73L458.991 852.206M327.851 1065.25L262.281 958.73L327.851 852.206M327.851 1065.25H196.71M327.851 1065.25L393.42 958.73L327.851 852.206M458.991 852.206H327.851M590.141 1065.25H458.988L393.418 958.73L458.988 852.206M590.141 1065.25L655.711 958.73M590.141 1065.25H721.28M590.141 1065.25L524.57 958.73L590.141 852.206M655.711 958.73L590.141 852.206M655.711 958.73L721.28 852.206M655.711 958.73L721.28 1065.25M590.141 852.206H458.988M590.141 852.206L655.711 745.682M590.141 852.206L721.28 852.206M590.141 852.206L524.57 745.682L590.14 639.157M458.988 852.206L393.418 745.682L458.988 639.157M590.14 639.157H721.28M590.14 639.157H458.988M590.14 639.157L655.711 532.633M590.14 639.157L655.711 745.682M721.28 639.157L786.85 745.682L721.28 852.206M721.28 639.157L852.42 639.158M721.28 639.157L655.711 745.682M721.28 639.157L655.711 532.633M655.711 745.682L721.28 852.206M721.28 852.206L786.85 958.73L721.28 1065.25M721.28 852.206L852.42 852.206M721.28 1065.25H852.42L917.99 958.73L852.42 852.206M1769.73 213.048H1900.88M1769.73 213.048L1704.16 106.524L1769.73 0M1769.73 213.048L1835.31 319.572L1769.73 426.109M1769.73 213.048L1638.59 213.048M1769.73 213.048L1704.16 319.572L1769.73 426.109M1769.73 213.048L1835.31 106.524L1769.73 0M1900.88 213.048L1966.45 106.524L1900.88 0H1769.73M1900.88 213.048L1966.45 319.572L1900.88 426.109M1769.73 0H1638.59L1573.02 106.524M1638.59 426.109H1769.73M1638.59 426.109L1573.02 319.572M1638.59 426.109L1573.02 532.633M1638.59 426.109H1507.45M1638.59 426.109L1704.15 319.572L1638.59 213.048M1638.59 426.109L1704.15 532.633L1638.59 639.157M1769.73 426.109H1900.88M1769.73 426.109L1835.31 532.633L1769.73 639.157M1769.73 426.109L1704.16 532.633L1769.73 639.157M1638.59 213.048L1573.02 319.572M1638.59 213.048L1573.02 106.524M1638.59 213.048H1507.45M1573.02 319.572L1507.45 426.109M1573.02 319.572L1507.45 213.048M1900.88 426.109L1966.45 532.633L1900.88 639.157M1573.02 106.524L1507.45 213.048M1573.02 106.524L1507.45 0L1376.31 1.42701e-08M1638.59 639.157H1769.73M1638.59 639.157L1573.02 532.633M1638.59 639.157L1573.02 745.682M1638.59 639.157L1704.15 745.682L1638.59 852.206M1638.59 639.157L1507.45 639.158M1769.73 639.157H1900.88M1769.73 639.157L1835.31 745.682L1769.73 852.206M1769.73 639.157L1704.16 745.682L1769.73 852.206M1573.02 532.633L1507.45 639.158M1573.02 532.633L1507.45 426.109M1900.88 639.157L1966.45 745.682L1900.88 852.206M1769.73 1065.25H1900.88L1966.45 958.73L1900.88 852.206M1769.73 1065.25L1704.16 958.73L1769.73 852.206M1769.73 1065.25H1638.59M1769.73 1065.25L1835.31 958.73L1769.73 852.206M1900.88 852.206H1769.73M1769.73 852.206L1638.59 852.206M1638.59 852.206L1573.02 745.682M1638.59 852.206L1573.02 958.73M1638.59 852.206L1507.45 852.206M1638.59 852.206L1704.15 958.73L1638.59 1065.25M1573.02 745.682L1507.45 852.206M1573.02 745.682L1507.45 639.158M1638.59 1065.25L1573.02 958.73M1638.59 1065.25H1507.45M1573.02 958.73L1507.45 1065.25M1573.02 958.73L1507.45 852.206M852.42 852.206L917.99 745.682L852.42 639.158M852.42 852.206L983.561 852.206M852.42 852.206L786.852 745.682L852.42 639.158M852.42 639.158H983.561M983.561 852.206L1049.13 745.682L983.561 639.158M983.561 852.206L1049.13 958.73L983.561 1065.25H852.421L786.852 958.73L852.421 852.206L983.561 852.206ZM1376.31 426.109H1507.45M1376.31 426.109L1310.72 319.572L1376.31 213.048M1376.31 426.109H1245.15M1376.31 426.109L1441.88 319.572M1376.31 426.109L1441.88 532.633M1376.31 426.109L1310.72 532.633L1376.31 639.157M1507.45 426.109L1441.88 319.572M1507.45 426.109L1441.88 532.633M1507.45 213.048H1376.31M1507.45 213.048L1441.88 319.572M1376.31 213.048L1441.88 319.572M1376.31 213.048L1245.15 213.048M1376.31 213.048L1441.88 106.524L1376.31 1.42701e-08M1376.31 213.048L1310.72 106.524L1376.31 1.42701e-08M982.871 213.048H1114.01M982.871 213.048L917.301 106.524L982.871 0H1114.01M982.871 213.048L917.301 319.572L982.871 426.109M1114.01 213.048L1179.58 106.524L1114.01 0M1114.01 213.048H1245.15M1114.01 213.048L1048.44 106.524L1114.01 0M1114.01 213.048L1179.58 319.572L1114.01 426.109M1114.01 213.048L1048.44 319.572L1114.01 426.109M1114.01 0H1245.15M1245.15 213.048L1310.72 106.524L1245.15 0M1245.15 213.048L1310.72 319.572L1245.15 426.109M1245.15 213.048L1179.58 319.572L1245.15 426.109M1245.15 213.048L1179.58 106.524L1245.15 0M1245.15 0L1376.31 1.42701e-08M982.871 426.109H1114.01M982.871 426.109L917.301 532.633L982.871 639.157M1114.01 426.109H1245.15M1114.01 426.109L1179.58 532.633L1114.01 639.157M1114.01 426.109L1048.44 532.633L1114.01 639.157M1245.15 426.109L1179.58 532.633L1245.15 639.157M1245.15 426.109L1310.72 532.633L1245.15 639.157M982.871 639.157H1114.01M982.871 639.157L917.301 745.682L982.871 852.206M1114.01 639.157L1245.15 639.157M1114.01 639.157L1179.58 745.682L1114.01 852.206M1114.01 639.157L1048.44 745.682L1114.01 852.206M1114.01 1065.25H982.871L917.301 958.73L982.871 852.206M1114.01 1065.25L1179.58 958.73L1114.01 852.206M1114.01 1065.25H1245.15M1114.01 1065.25L1048.44 958.73L1114.01 852.206M1114.01 852.206H982.871M1114.01 852.206H1245.15M1245.15 1065.25L1310.72 958.73L1245.15 852.206M1245.15 1065.25H1376.31M1245.15 1065.25L1179.58 958.73L1245.15 852.206M1245.15 852.206L1310.72 745.682L1245.15 639.157M1245.15 852.206L1376.31 852.206M1245.15 852.206L1179.58 745.682L1245.15 639.157M1245.15 639.157H1376.31M1376.31 639.157L1441.88 532.633M1376.31 639.157L1441.88 745.682M1376.31 639.157L1507.45 639.158M1376.31 639.157L1310.72 745.682L1376.31 852.206M1441.88 532.633L1507.45 639.158M1376.31 852.206L1441.88 745.682M1376.31 852.206L1441.88 958.73M1376.31 852.206L1507.45 852.206M1376.31 852.206L1310.72 958.73L1376.31 1065.25M1441.88 745.682L1507.45 639.158M1441.88 745.682L1507.45 852.206M1376.31 1065.25L1441.88 958.73M1376.31 1065.25H1507.45M1441.88 958.73L1507.45 852.206M1441.88 958.73L1507.45 1065.25M852.394 213.048H983.534L1049.1 106.524L983.534 0H852.394L786.824 106.524L852.394 213.048ZM1507.42 213.048H1638.56L1704.13 106.524L1638.56 0H1507.42L1441.84 106.524L1507.42 213.048Z" stroke="url(#paint0_linear_590_106)" stroke-opacity="0.56" stroke-miterlimit="10"/>
<path d="M721.281 426.109H852.42M721.281 426.109L655.711 319.572M721.281 426.109H590.141M721.281 426.109L786.85 319.572L721.281 213.048M721.281 426.109L786.85 532.633L721.28 639.157M721.281 426.109L655.711 532.633M852.42 426.109L917.99 319.572L852.42 213.048M852.42 426.109L917.99 532.633L852.42 639.158M852.42 213.048H721.281M852.42 213.048L917.99 106.524L852.42 0H721.28M721.281 213.048L655.711 319.572M721.281 213.048L590.141 213.048M721.281 213.048L786.85 106.524L721.28 0M721.281 213.048L655.711 106.524M655.711 319.572L590.141 426.109M655.711 319.572L590.141 213.048M327.851 213.048H458.991M327.851 213.048L262.281 106.524L327.851 0M327.851 213.048L393.42 319.572L327.85 426.109M327.851 213.048H196.71M327.851 213.048L262.281 319.572L327.85 426.109M327.851 213.048L393.42 106.524L327.851 0M458.991 213.048L524.574 106.524L458.991 0H327.851M458.991 213.048L524.574 319.572L458.991 426.109M327.851 0H196.71M458.988 213.048H590.141M458.988 213.048L393.418 106.524L458.988 0H590.141M458.988 213.048L393.418 319.572L458.988 426.109M590.141 213.048L655.711 106.524M590.141 213.048L524.57 319.572L590.141 426.109M590.141 213.048L524.57 106.524L590.141 0M655.711 106.524L590.141 0M655.711 106.524L721.28 0M590.141 0H721.28M65.5698 213.048H196.71M65.5698 213.048L0 106.524L65.5698 0H196.71M65.5698 213.048L5.7239e-09 319.572L65.5698 426.109M196.71 213.048L262.279 106.524L196.71 0M196.71 213.048L131.141 319.572L196.71 426.109M196.71 213.048L262.279 319.572L196.71 426.109M196.71 213.048L131.141 106.524L196.71 0M196.71 426.109H327.85M196.71 426.109L65.5698 426.109M196.71 426.109L262.279 532.633L196.71 639.158M196.71 426.109L131.141 532.633L196.71 639.158M327.85 426.109H458.991M327.85 426.109L393.42 532.633L327.85 639.157M327.85 426.109L262.281 532.633L327.85 639.157M458.991 426.109L524.574 532.633L458.991 639.157M458.988 426.109H590.141M458.988 426.109L393.418 532.633L458.988 639.157M590.141 426.109L524.57 532.633L590.14 639.157M590.141 426.109L655.711 532.633M65.5698 426.109L5.7239e-09 532.633L65.5698 639.158M852.421 426.109H983.561M852.421 426.109L786.852 319.572L852.421 213.048H983.561L1049.13 319.572L983.561 426.109M852.421 426.109L786.852 532.633L852.421 639.157L983.561 639.158M983.561 426.109L1049.13 532.633L983.561 639.158M65.5698 852.206H196.71M65.5698 852.206L0 745.682L65.5698 639.158M65.5698 852.206L5.7239e-09 958.73L65.5698 1065.25H196.71M196.71 852.206L262.279 745.682L196.71 639.158M196.71 852.206L327.851 852.206M196.71 852.206L131.141 745.682L196.71 639.158M196.71 852.206L262.279 958.73L196.71 1065.25M196.71 852.206L131.141 958.73L196.71 1065.25M196.71 639.158H65.5698M196.71 639.158L327.85 639.157M327.85 639.157H458.991M327.85 639.157L393.42 745.682L327.851 852.206M327.85 639.157L262.281 745.682L327.851 852.206M458.991 639.157L524.574 745.682L458.991 852.206M327.851 1065.25H458.991L524.574 958.73L458.991 852.206M327.851 1065.25L262.281 958.73L327.851 852.206M327.851 1065.25H196.71M327.851 1065.25L393.42 958.73L327.851 852.206M458.991 852.206H327.851M590.141 1065.25H458.988L393.418 958.73L458.988 852.206M590.141 1065.25L655.711 958.73M590.141 1065.25H721.28M590.141 1065.25L524.57 958.73L590.141 852.206M655.711 958.73L590.141 852.206M655.711 958.73L721.28 852.206M655.711 958.73L721.28 1065.25M590.141 852.206H458.988M590.141 852.206L655.711 745.682M590.141 852.206L721.28 852.206M590.141 852.206L524.57 745.682L590.14 639.157M458.988 852.206L393.418 745.682L458.988 639.157M590.14 639.157H721.28M590.14 639.157H458.988M590.14 639.157L655.711 532.633M590.14 639.157L655.711 745.682M721.28 639.157L786.85 745.682L721.28 852.206M721.28 639.157L852.42 639.158M721.28 639.157L655.711 745.682M721.28 639.157L655.711 532.633M655.711 745.682L721.28 852.206M721.28 852.206L786.85 958.73L721.28 1065.25M721.28 852.206L852.42 852.206M721.28 1065.25H852.42L917.99 958.73L852.42 852.206M1769.73 213.048H1900.88M1769.73 213.048L1704.16 106.524L1769.73 0M1769.73 213.048L1835.31 319.572L1769.73 426.109M1769.73 213.048L1638.59 213.048M1769.73 213.048L1704.16 319.572L1769.73 426.109M1769.73 213.048L1835.31 106.524L1769.73 0M1900.88 213.048L1966.45 106.524L1900.88 0H1769.73M1900.88 213.048L1966.45 319.572L1900.88 426.109M1769.73 0H1638.59L1573.02 106.524M1638.59 426.109H1769.73M1638.59 426.109L1573.02 319.572M1638.59 426.109L1573.02 532.633M1638.59 426.109H1507.45M1638.59 426.109L1704.15 319.572L1638.59 213.048M1638.59 426.109L1704.15 532.633L1638.59 639.157M1769.73 426.109H1900.88M1769.73 426.109L1835.31 532.633L1769.73 639.157M1769.73 426.109L1704.16 532.633L1769.73 639.157M1638.59 213.048L1573.02 319.572M1638.59 213.048L1573.02 106.524M1638.59 213.048H1507.45M1573.02 319.572L1507.45 426.109M1573.02 319.572L1507.45 213.048M1900.88 426.109L1966.45 532.633L1900.88 639.157M1573.02 106.524L1507.45 213.048M1573.02 106.524L1507.45 0L1376.31 1.42701e-08M1638.59 639.157H1769.73M1638.59 639.157L1573.02 532.633M1638.59 639.157L1573.02 745.682M1638.59 639.157L1704.15 745.682L1638.59 852.206M1638.59 639.157L1507.45 639.158M1769.73 639.157H1900.88M1769.73 639.157L1835.31 745.682L1769.73 852.206M1769.73 639.157L1704.16 745.682L1769.73 852.206M1573.02 532.633L1507.45 639.158M1573.02 532.633L1507.45 426.109M1900.88 639.157L1966.45 745.682L1900.88 852.206M1769.73 1065.25H1900.88L1966.45 958.73L1900.88 852.206M1769.73 1065.25L1704.16 958.73L1769.73 852.206M1769.73 1065.25H1638.59M1769.73 1065.25L1835.31 958.73L1769.73 852.206M1900.88 852.206H1769.73M1769.73 852.206L1638.59 852.206M1638.59 852.206L1573.02 745.682M1638.59 852.206L1573.02 958.73M1638.59 852.206L1507.45 852.206M1638.59 852.206L1704.15 958.73L1638.59 1065.25M1573.02 745.682L1507.45 852.206M1573.02 745.682L1507.45 639.158M1638.59 1065.25L1573.02 958.73M1638.59 1065.25H1507.45M1573.02 958.73L1507.45 1065.25M1573.02 958.73L1507.45 852.206M852.42 852.206L917.99 745.682L852.42 639.158M852.42 852.206L983.561 852.206M852.42 852.206L786.852 745.682L852.42 639.158M852.42 639.158H983.561M983.561 852.206L1049.13 745.682L983.561 639.158M983.561 852.206L1049.13 958.73L983.561 1065.25H852.421L786.852 958.73L852.421 852.206L983.561 852.206ZM1376.31 426.109H1507.45M1376.31 426.109L1310.72 319.572L1376.31 213.048M1376.31 426.109H1245.15M1376.31 426.109L1441.88 319.572M1376.31 426.109L1441.88 532.633M1376.31 426.109L1310.72 532.633L1376.31 639.157M1507.45 426.109L1441.88 319.572M1507.45 426.109L1441.88 532.633M1507.45 213.048H1376.31M1507.45 213.048L1441.88 319.572M1376.31 213.048L1441.88 319.572M1376.31 213.048L1245.15 213.048M1376.31 213.048L1441.88 106.524L1376.31 1.42701e-08M1376.31 213.048L1310.72 106.524L1376.31 1.42701e-08M982.871 213.048H1114.01M982.871 213.048L917.301 106.524L982.871 0H1114.01M982.871 213.048L917.301 319.572L982.871 426.109M1114.01 213.048L1179.58 106.524L1114.01 0M1114.01 213.048H1245.15M1114.01 213.048L1048.44 106.524L1114.01 0M1114.01 213.048L1179.58 319.572L1114.01 426.109M1114.01 213.048L1048.44 319.572L1114.01 426.109M1114.01 0H1245.15M1245.15 213.048L1310.72 106.524L1245.15 0M1245.15 213.048L1310.72 319.572L1245.15 426.109M1245.15 213.048L1179.58 319.572L1245.15 426.109M1245.15 213.048L1179.58 106.524L1245.15 0M1245.15 0L1376.31 1.42701e-08M982.871 426.109H1114.01M982.871 426.109L917.301 532.633L982.871 639.157M1114.01 426.109H1245.15M1114.01 426.109L1179.58 532.633L1114.01 639.157M1114.01 426.109L1048.44 532.633L1114.01 639.157M1245.15 426.109L1179.58 532.633L1245.15 639.157M1245.15 426.109L1310.72 532.633L1245.15 639.157M982.871 639.157H1114.01M982.871 639.157L917.301 745.682L982.871 852.206M1114.01 639.157L1245.15 639.157M1114.01 639.157L1179.58 745.682L1114.01 852.206M1114.01 639.157L1048.44 745.682L1114.01 852.206M1114.01 1065.25H982.871L917.301 958.73L982.871 852.206M1114.01 1065.25L1179.58 958.73L1114.01 852.206M1114.01 1065.25H1245.15M1114.01 1065.25L1048.44 958.73L1114.01 852.206M1114.01 852.206H982.871M1114.01 852.206H1245.15M1245.15 1065.25L1310.72 958.73L1245.15 852.206M1245.15 1065.25H1376.31M1245.15 1065.25L1179.58 958.73L1245.15 852.206M1245.15 852.206L1310.72 745.682L1245.15 639.157M1245.15 852.206L1376.31 852.206M1245.15 852.206L1179.58 745.682L1245.15 639.157M1245.15 639.157H1376.31M1376.31 639.157L1441.88 532.633M1376.31 639.157L1441.88 745.682M1376.31 639.157L1507.45 639.158M1376.31 639.157L1310.72 745.682L1376.31 852.206M1441.88 532.633L1507.45 639.158M1376.31 852.206L1441.88 745.682M1376.31 852.206L1441.88 958.73M1376.31 852.206L1507.45 852.206M1376.31 852.206L1310.72 958.73L1376.31 1065.25M1441.88 745.682L1507.45 639.158M1441.88 745.682L1507.45 852.206M1376.31 1065.25L1441.88 958.73M1376.31 1065.25H1507.45M1441.88 958.73L1507.45 852.206M1441.88 958.73L1507.45 1065.25M852.394 213.048H983.534L1049.1 106.524L983.534 0H852.394L786.824 106.524L852.394 213.048ZM1507.42 213.048H1638.56L1704.13 106.524L1638.56 0H1507.42L1441.84 106.524L1507.42 213.048Z" stroke="url(#paint1_linear_590_106)" stroke-miterlimit="10"/>
</g>
<defs>
<linearGradient id="paint0_linear_590_106" x1="22.5" y1="124.536" x2="942.186" y2="791.77" gradientUnits="userSpaceOnUse">
<stop stop-color="#115833"/>
<stop offset="1" stop-color="#207447"/>
</linearGradient>
<linearGradient id="paint1_linear_590_106" x1="1011" y1="532.791" x2="-2.02688e-05" y2="532.791" gradientUnits="userSpaceOnUse">
<stop/>
<stop offset="1" stop-opacity="0"/>
</linearGradient>
<clipPath id="clip0_590_106">
<rect width="1966" height="1065" fill="white"/>
</clipPath>
</defs>
</svg>
