<svg width="100" height="120" viewBox="0 0 100 120" fill="none" xmlns="http://www.w3.org/2000/svg">
<path d="M49.9949 0L0 15.8186V47.8653C0 56.3607 1.59174 64.7163 4.57627 72.5323C9.2537 84.7742 17.3439 95.694 28.0747 103.74L47.2633 118.126L48.0187 118.693L49.5869 119.828C49.9174 120.068 50.3693 120.055 50.6863 119.802L51.8329 118.889L71.9253 103.743C89.5053 90.5522 100 69.665 100 47.8687V15.8186L49.9949 0ZM5.95892 20.1146L49.9949 6.1809L94.0377 20.1146V40.0027C88.3283 33.965 80.2819 30.4249 71.6555 30.4249C62.3377 30.4249 53.4482 34.6843 47.6512 41.8709C46.8553 41.811 46.0594 41.781 45.2804 41.781C32.6105 41.781 21.0872 49.647 16.6054 61.3594L15.9781 63.0079C15.85 63.3409 15.9141 63.6806 16.0962 63.9337C20.0216 62.2153 24.3652 61.2595 28.938 61.2595C29.4506 61.2595 29.9599 61.2728 30.4657 61.2961C32.8635 61.476 35.2039 61.8523 37.4768 62.4118C37.5274 62.4218 37.5746 62.4351 37.6252 62.4517C50.9122 66.1783 60.6448 78.2536 60.6448 92.5703C60.6448 92.6269 60.6448 92.6802 60.6448 92.7368C60.6043 100.43 56.8543 107.646 50.6492 112.299L50.2681 112.585C50.1096 112.702 49.8904 112.702 49.7353 112.585L49.452 112.372L31.6831 99.0509C21.1446 91.145 13.3814 80.2152 9.27731 68.0065C7.10889 61.5626 5.9623 54.7622 5.9623 47.8653V20.1146H5.95892Z" fill="white"/>
</svg>
